<svg width="309" height="45" viewBox="0 0 309 45" fill="none" xmlns="http://www.w3.org/2000/svg">
<path d="M22.5 0C34.9264 0 45 10.0736 45 22.5C45 34.9264 34.9264 45 22.5 45C10.0736 45 0 34.9264 0 22.5C0 10.0736 10.0736 0 22.5 0ZM26.2129 8.53516C24.2604 6.58302 21.0951 6.58306 19.1426 8.53516L8.53516 19.1426C6.58306 21.0951 6.58302 24.2604 8.53516 26.2129L19.1426 36.8193C21.0952 38.772 24.2603 38.772 26.2129 36.8193L36.8193 26.2129C38.772 24.2603 38.772 21.0952 36.8193 19.1426L26.2129 8.53516Z" fill="black"/>
<path d="M70.175 10.255C71.995 10.255 73.6867 10.57 75.25 11.2C76.8367 11.83 78.2133 12.7167 79.38 13.86C80.57 15.0033 81.4917 16.3333 82.145 17.85C82.8217 19.3433 83.16 20.965 83.16 22.715C83.16 24.465 82.8217 26.11 82.145 27.65C81.4917 29.1667 80.57 30.4967 79.38 31.64C78.2133 32.7833 76.8367 33.6817 75.25 34.335C73.6867 34.965 71.995 35.28 70.175 35.28C68.355 35.28 66.6517 34.965 65.065 34.335C63.5017 33.6817 62.125 32.7833 60.935 31.64C59.7683 30.4967 58.8467 29.1667 58.17 27.65C57.5167 26.11 57.19 24.465 57.19 22.715C57.19 20.965 57.5167 19.3317 58.17 17.815C58.8467 16.2983 59.7683 14.98 60.935 13.86C62.125 12.7167 63.5017 11.83 65.065 11.2C66.6517 10.57 68.355 10.255 70.175 10.255ZM70.21 13.755C68.9967 13.755 67.8533 13.9883 66.78 14.455C65.73 14.8983 64.7967 15.5283 63.98 16.345C63.1633 17.1617 62.5217 18.1183 62.055 19.215C61.6117 20.2883 61.39 21.455 61.39 22.715C61.39 23.975 61.6233 25.1533 62.09 26.25C62.5567 27.3467 63.1983 28.315 64.015 29.155C64.8317 29.9717 65.765 30.6133 66.815 31.08C67.8883 31.5467 69.02 31.78 70.21 31.78C71.4 31.78 72.52 31.5467 73.57 31.08C74.6433 30.6133 75.5767 29.9717 76.37 29.155C77.1633 28.315 77.7817 27.3467 78.225 26.25C78.6917 25.1533 78.925 23.975 78.925 22.715C78.925 21.455 78.6917 20.2883 78.225 19.215C77.7817 18.1183 77.1633 17.1617 76.37 16.345C75.5767 15.5283 74.6433 14.8983 73.57 14.455C72.52 13.9883 71.4 13.755 70.21 13.755ZM91.195 24.955C91.195 27.0783 91.7783 28.7467 92.945 29.96C94.1116 31.1733 95.6866 31.78 97.67 31.78C99.63 31.78 101.182 31.185 102.325 29.995C103.468 28.7817 104.04 27.1017 104.04 24.955V10.5H108.17V24.955C108.17 27.0783 107.75 28.9217 106.91 30.485C106.07 32.025 104.857 33.215 103.27 34.055C101.707 34.8717 99.84 35.28 97.67 35.28C95.4766 35.28 93.5866 34.8717 92 34.055C90.4133 33.215 89.1883 32.025 88.325 30.485C87.485 28.9217 87.065 27.0783 87.065 24.955V10.5H91.195V24.955ZM111.208 10.5H130.843V14.035H123.073V35H118.943V14.035H111.208V10.5ZM134.381 10.5H150.831L150.796 14.035H138.511V21.315H149.641V24.815H138.511V35H134.381V10.5ZM165.468 10.255C167.288 10.255 168.98 10.57 170.543 11.2C172.13 11.83 173.506 12.7167 174.673 13.86C175.863 15.0033 176.785 16.3333 177.438 17.85C178.115 19.3433 178.453 20.965 178.453 22.715C178.453 24.465 178.115 26.11 177.438 27.65C176.785 29.1667 175.863 30.4967 174.673 31.64C173.506 32.7833 172.13 33.6817 170.543 34.335C168.98 34.965 167.288 35.28 165.468 35.28C163.648 35.28 161.945 34.965 160.358 34.335C158.795 33.6817 157.418 32.7833 156.228 31.64C155.061 30.4967 154.14 29.1667 153.463 27.65C152.81 26.11 152.483 24.465 152.483 22.715C152.483 20.965 152.81 19.3317 153.463 17.815C154.14 16.2983 155.061 14.98 156.228 13.86C157.418 12.7167 158.795 11.83 160.358 11.2C161.945 10.57 163.648 10.255 165.468 10.255ZM165.503 13.755C164.29 13.755 163.146 13.9883 162.073 14.455C161.023 14.8983 160.09 15.5283 159.273 16.345C158.456 17.1617 157.815 18.1183 157.348 19.215C156.905 20.2883 156.683 21.455 156.683 22.715C156.683 23.975 156.916 25.1533 157.383 26.25C157.85 27.3467 158.491 28.315 159.308 29.155C160.125 29.9717 161.058 30.6133 162.108 31.08C163.181 31.5467 164.313 31.78 165.503 31.78C166.693 31.78 167.813 31.5467 168.863 31.08C169.936 30.6133 170.87 29.9717 171.663 29.155C172.456 28.315 173.075 27.3467 173.518 26.25C173.985 25.1533 174.218 23.975 174.218 22.715C174.218 21.455 173.985 20.2883 173.518 19.215C173.075 18.1183 172.456 17.1617 171.663 16.345C170.87 15.5283 169.936 14.8983 168.863 14.455C167.813 13.9883 166.693 13.755 165.503 13.755ZM186.488 24.955C186.488 27.0783 187.071 28.7467 188.238 29.96C189.405 31.1733 190.98 31.78 192.963 31.78C194.923 31.78 196.475 31.185 197.618 29.995C198.761 28.7817 199.333 27.1017 199.333 24.955V10.5H203.463V24.955C203.463 27.0783 203.043 28.9217 202.203 30.485C201.363 32.025 200.15 33.215 198.563 34.055C197 34.8717 195.133 35.28 192.963 35.28C190.77 35.28 188.88 34.8717 187.293 34.055C185.706 33.215 184.481 32.025 183.618 30.485C182.778 28.9217 182.358 27.0783 182.358 24.955V10.5H186.488V24.955ZM209.406 10.5H213.466L227.641 29.925L226.591 30.275V10.5H230.651V35H226.591L212.451 15.61L213.536 15.26V35H209.406V10.5ZM247.17 10.5C249.014 10.5 250.705 10.8033 252.245 11.41C253.785 12.0167 255.115 12.8683 256.235 13.965C257.379 15.0617 258.265 16.3567 258.895 17.85C259.525 19.3433 259.84 20.9767 259.84 22.75C259.84 24.5233 259.525 26.1567 258.895 27.65C258.265 29.12 257.379 30.415 256.235 31.535C255.092 32.6317 253.739 33.4833 252.175 34.09C250.612 34.6967 248.909 35 247.065 35H237.125V10.5H247.17ZM247.275 31.465C248.465 31.465 249.562 31.255 250.565 30.835C251.592 30.415 252.479 29.82 253.225 29.05C253.995 28.2567 254.59 27.335 255.01 26.285C255.454 25.2117 255.675 24.045 255.675 22.785C255.675 21.5017 255.454 20.335 255.01 19.285C254.567 18.2117 253.96 17.2783 253.19 16.485C252.42 15.6917 251.51 15.085 250.46 14.665C249.434 14.245 248.314 14.035 247.1 14.035H241.255V31.465H247.275ZM274.204 10.5C277.354 10.5 279.781 11.235 281.484 12.705C283.211 14.1517 284.074 16.1933 284.074 18.83C284.074 21.5833 283.211 23.73 281.484 25.27C279.781 26.7867 277.354 27.545 274.204 27.545H268.394V35H264.264V10.5H274.204ZM274.204 24.01C276.094 24.01 277.552 23.6017 278.579 22.785C279.629 21.945 280.154 20.6617 280.154 18.935C280.154 17.2783 279.629 16.0533 278.579 15.26C277.552 14.4433 276.094 14.035 274.204 14.035H268.394V24.01H274.204ZM274.344 25.935H278.404L284.494 35H279.804L274.344 25.935ZM286.098 10.5H290.263L297.263 22.61L304.123 10.5H308.323L297.543 29.82H296.948L286.098 10.5ZM295.233 24.675H299.328V35H295.233V24.675Z" fill="black"/>
</svg>
